<svg width="6" height="12" viewBox="0 0 6 12" fill="none" xmlns="http://www.w3.org/2000/svg">
<path d="M5.84313 11.069L1.23213 6.384C1.13101 6.28178 1.07428 6.14379 1.07428 6C1.07428 5.85621 1.13101 5.71822 1.23213 5.616L5.84213 0.930999C5.94321 0.828144 5.99985 0.689706 5.99985 0.545499C5.99985 0.401292 5.94321 0.262855 5.84213 0.159999C5.79276 0.109351 5.73374 0.069099 5.66856 0.041615C5.60339 0.0141311 5.53337 -2.81335e-05 5.46263 -2.81335e-05C5.3919 -2.81335e-05 5.32188 0.0141311 5.2567 0.041615C5.19153 0.069099 5.13251 0.109351 5.08313 0.159999L0.473134 4.844C0.170208 5.15252 0.000488281 5.56762 0.000488281 6C0.000488281 6.43238 0.170208 6.84748 0.473134 7.156L5.08313 11.84C5.13253 11.8908 5.1916 11.9312 5.25687 11.9588C5.32214 11.9863 5.39228 12.0005 5.46313 12.0005C5.53399 12.0005 5.60412 11.9863 5.66939 11.9588C5.73466 11.9312 5.79374 11.8908 5.84313 11.84C5.94421 11.7371 6.00085 11.5987 6.00085 11.4545C6.00085 11.3103 5.94421 11.1719 5.84313 11.069Z" fill="black"/>
</svg>
