<svg width="6" height="12" viewBox="0 0 6 12" fill="none" xmlns="http://www.w3.org/2000/svg">
<path d="M0.157841 0.93153L4.76884 5.61653C4.86997 5.71875 4.92669 5.85674 4.92669 6.00053C4.92669 6.14432 4.86997 6.28231 4.76884 6.38453L0.158842 11.0695C0.0577659 11.1724 0.00112963 11.3108 0.00112963 11.455C0.00112963 11.5992 0.0577659 11.7377 0.158842 11.8405C0.208219 11.8912 0.267235 11.9314 0.332411 11.9589C0.397588 11.9864 0.467608 12.0006 0.538342 12.0006C0.609077 12.0006 0.679095 11.9864 0.744272 11.9589C0.809449 11.9314 0.868465 11.8912 0.917842 11.8405L5.52784 7.15653C5.83077 6.84801 6.00049 6.43291 6.00049 6.00053C6.00049 5.56815 5.83077 5.15305 5.52784 4.84453L0.917842 0.16053C0.868449 0.109728 0.809372 0.0693455 0.744102 0.0417707C0.678833 0.014196 0.608697 -1.14441e-05 0.537841 -1.14441e-05C0.466986 -1.14441e-05 0.396851 0.014196 0.331582 0.0417707C0.266312 0.0693455 0.207234 0.109728 0.157841 0.16053C0.0567655 0.263385 0.000129223 0.401823 0.000129223 0.54603C0.000129223 0.690236 0.0567655 0.828674 0.157841 0.93153Z" fill="black"/>
</svg>
